# xmcd
#
# Track frame offsets:
#	150
#	22942
#	38679
#	52148
#	69466
#	86526
#	108536
#	124875
#	141464
#	164256
#	179993
#	193462
#	210780
#	227836
#	249846
#	266185
#
# Disc length: 3770 seconds
#
# Revision: 1
# Processed by: cddbd v1.5.2PL0 Copyright (c) Steve Scherf et al.
# Submitted via: audiograbber 1.83.01
#
DISCID=ee0eb810
DTITLE=Best Female Country Hits Vol 4 - N0114
DYEAR=1900
DGENRE=Karaoke
TTITLE0=Shania Twain - Forever And For Always (Country Version)
TTITLE1=Martina McBride - In My Daughter's Eyes
TTITLE2=Terri Clark - I Wanna Do It All
TTITLE3=Faith Hill - There You'll Be
TTITLE4=Gretchen Wilson - Redneck Woman
TTITLE5=Martina McBride - Where Would You Be
TTITLE6=Patty Loveless - Lovin' All Night
TTITLE7=Shania Twain - It Only Hurts When I'm Breathing (Country Version)
TTITLE8=Shania Twain - Forever And For Always (Country Version) w/vocals
TTITLE9=Martina McBride - In My Daughter's Eyes w/vocals
TTITLE10=Terri Clark - I Wanna Do It All w/vocals
TTITLE11=Faith Hill - There You'll Be w/vocals
TTITLE12=Gretchen Wilson - Redneck Woman w/vocals
TTITLE13=Martina McBride - Where Would You Be w/vocals
TTITLE14=Patty Loveless - Lovin' All Night w/vocals
TTITLE15=Shania Twain - It Only Hurts When I'm Breathing (Country Version) w/vo
TTITLE15=cals
EXTD=
EXTT0=
EXTT1=
EXTT2=
EXTT3=
EXTT4=
EXTT5=
EXTT6=
EXTT7=
EXTT8=
EXTT9=
EXTT10=
EXTT11=
EXTT12=
EXTT13=
EXTT14=
EXTT15=
PLAYORDER=
